/vscmnt/brussel_pixiu_data/_data_brussel/112/vsc11236/PredSimResults/SUBJ09mtu3D/worker1.mot
version=1
nRows=5
nColumns=50
inDegrees=yes
endheader
                time	         pelvis_tilt	         pelvis_list	     pelvis_rotation	           pelvis_tx	           pelvis_ty	           pelvis_tz	       hip_flexion_r	     hip_adduction_r	      hip_rotation_r	        knee_angle_r	       ankle_angle_r	         mtp_angle_r	       hip_flexion_l	     hip_adduction_l	      hip_rotation_l	        knee_angle_l	       ankle_angle_l	         mtp_angle_l	    lumbar_extension	      lumbar_bending	     lumbar_rotation	 ercspn_r/activation	 intobl_r/activation	 extobl_r/activation	    abd_r/activation	    add_r/activation	hamstrings_r/activation	bifemsh_r/activation	glut_max_r/activation	iliopsoas_r/activation	rect_fem_r/activation	  vasti_r/activation	gastroc_r/activation	 soleus_r/activation	tib_ant_r/activation	 ercspn_l/activation	 intobl_l/activation	 extobl_l/activation	    abd_l/activation	    add_l/activation	hamstrings_l/activation	bifemsh_l/activation	glut_max_l/activation	iliopsoas_l/activation	rect_fem_l/activation	  vasti_l/activation	gastroc_l/activation	 soleus_l/activation	tib_ant_l/activation	
          0.00000000	         -3.21086885	         -1.34713572	          4.99706008	          0.00000000	          0.99011912	          0.00108636	         28.03532920	          0.24024200	         -0.87173240	         -6.36558233	          7.58182725	          0.23884268	        -14.28950796	         -2.19972508	          2.69657079	        -10.38224286	          8.30806735	         31.32434101	        -13.67497116	         -1.37219895	          1.26055673	          0.01190554	          0.26577625	          0.08236972	          0.00999999	          0.08308675	          0.01000001	          0.16914444	          0.08905112	          0.09461002	          0.03471937	          0.01000000	          0.02452679	          0.01123830	          0.23155752	          0.01000001	          0.01000001	          0.01000001	          0.02504380	          0.02973656	          0.01156608	          0.17298228	          0.01734682	          0.32031943	          0.01000002	          0.01000000	          0.31498969	          0.24627847	          0.00999999	
          0.01209272	         -3.19961627	         -1.42337740	          5.03252344	          0.01899702	          0.98800901	          0.00118677	         27.68729716	          0.44324170	         -0.76635176	         -7.69312727	          7.15937062	          0.20183029	        -14.70916827	         -2.33577797	          2.39828711	        -11.63778298	          7.47742818	         33.10753106	        -13.26689692	         -0.88045772	          1.22733209	          0.01000000	          0.24540986	          0.06855315	          0.06050410	          0.06914992	          0.01000007	          0.14077243	          0.12630217	          0.07874029	          0.02889560	          0.00999999	          0.02041270	          0.01201546	          0.27047219	          0.01000001	          0.01000000	          0.01446376	          0.02084300	          0.03120844	          0.01471732	          0.14396652	          0.01443709	          0.29357782	          0.01000000	          0.01000000	          0.29016741	          0.22510345	          0.00999999	
          0.02418543	         -3.17275374	         -1.50674896	          5.03905247	          0.03805467	          0.98629496	          0.00129734	         27.26939483	          0.64941642	         -0.65700075	         -8.91152712	          6.58908848	          0.20104241	        -14.87117636	         -2.46570486	          2.07750231	        -13.36823178	          6.49043312	         34.90860811	        -12.86638098	         -0.36633894	          1.19090905	          0.01000002	          0.20424520	          0.05705416	          0.12436266	          0.07244016	          0.02684467	          0.11715950	          0.14985877	          0.06553252	          0.02404870	          0.00999999	          0.01698871	          0.01000001	          0.30894751	          0.02251290	          0.01000000	          0.01203764	          0.01734683	          0.02907528	          0.01224867	          0.11981781	          0.01201544	          0.29843446	          0.01000000	          0.01000000	          0.25312304	          0.18873104	          0.00999999	
          0.03627815	         -3.13293946	         -1.59077912	          5.01549031	          0.05684571	          0.98520043	          0.00141579	         26.91580100	          0.86476159	         -0.54595571	        -10.20882699	          5.91440137	          0.17262942	        -14.67922779	         -2.58103651	          1.74954876	        -15.69547192	          5.33162717	         36.59061695	        -12.50961395	          0.16265862	          1.15437870	          0.01000021	          0.16998544	          0.04748398	          0.15558781	          0.09557325	          0.02234182	          0.09750735	          0.16237483	          0.05454020	          0.02001481	          0.06198141	          0.01413905	          0.01000000	          0.34070189	          0.04723318	          0.01000000	          0.01001847	          0.01443710	          0.05465863	          0.01019411	          0.09971978	          0.01000000	          0.27908249	          0.01000000	          0.00999999	          0.21066459	          0.15707360	          0.00999999	
          0.04837087	         -3.08103369	         -1.66688182	          4.96022501	          0.07525131	          0.98480661	          0.00151961	         26.59569616	          1.08002684	         -0.43743561	        -11.58407879	          5.45845557	          0.13984487	        -14.08420841	         -2.67237279	          1.42263600	        -18.68621895	          4.03872816	         37.85933269	        -12.20686396	          0.69705929	          1.12217918	          0.01000003	          0.14147236	          0.03951910	          0.17674679	          0.10336746	          0.01999803	          0.08115163	          0.16080290	          0.04539171	          0.01665756	          0.13504861	          0.01176740	          0.01000002	          0.35422880	          0.06683087	          0.01000000	          0.01000002	          0.01201544	          0.08089629	          0.01000003	          0.08299308	          0.00999999	          0.23226965	          0.00999999	          0.00999999	          0.17532805	          0.13072633	          0.00999999	
